<svg id="Layer_1" enable-background="new 0 0 509.881 509.881" height="512" viewBox="0 0 509.881 509.881" width="512" xmlns="http://www.w3.org/2000/svg"><g><path d="m66.94 388.141c-.62.619-5.974-5.289-6.561-4.648-9.153 10-14.197 22.431-15.159 35.115l13.719-3.719 9.617-19.617z" fill="#eceae7"/><path d="m296.771 340.072-126.501 126.501c-17.546 17.546-46.094 17.546-63.64 0l-23.228-23.228c-10.562-10.563-11.141-27.386-1.736-38.634.545-.651-2.838-5.336-2.226-5.947l-10.883-3.492-23.336 23.336c-1.249 16.475 4.396 33.379 16.968 45.95l23.227 23.228c29.243 29.243 76.823 29.243 106.066 0l126.501-126.501c9.582-9.582 25.173-9.582 34.755 0l25.049 25.049 21.214-21.213-25.05-25.049c-21.278-21.279-55.902-21.279-77.18 0z" fill="#e7dfdd"/><path d="m260.049 35.25 39.893 53.639 44.372 30.627 45.627-30.627 39.219-54.219c-46.837-46.2-122.519-46.012-169.111.58z" fill="#45f6ff"/><path d="m429.159 34.67-84.846 84.845 30.628 44.374 54.812 41.067c46.788-46.788 46.788-122.918 0-169.706-.195-.196-.397-.385-.594-.58z" fill="#00e4ef"/><path d="m260.049 35.25c-22.011 22.011-34.668 49.659-36.079 78.473l30.968 50.167 32.1 12.902 27.902-12.902 29.373-44.374z" fill="#00e4ef"/><path d="m287.038 176.791 32.099 47.098 32.146 17.146c28.813-1.412 56.461-14.069 78.472-36.079l-85.44-85.44z" fill="#00d5dd"/><path d="m69.129 332.235c-17.349 17.349-17.531 45.447-.572 63.037l21.383-6.383 22.72-37.721-7.72-22.28-23.553-8.891c-16.798 16.77-11.004 10.987-12.258 12.238z" fill="#ff8659"/><path d="m132.77 395.875 10.606-10.607 1.52-1.969-9.955-24.408-22.28-7.723-44.103 44.103c17.551 18.209 46.525 18.289 64.212.604z" fill="#ff405c"/><path d="m88.021 267.798c-16.327 18.504-15.448 46.667 2.002 64.117l20.946 20.946 83.972-68.972 92.098-107.098-63.068-63.069z" fill="#454040"/><path d="m132.552 374.444c17.459 17.458 45.637 18.338 64.15 2.003l154.058-135.934-63.722-63.721-176.069 176.07z" fill="#2e2e2e"/><path d="m207.016 236.775 10.019 10.02 22.905-7.906 8.915-23.914-10.02-10.019z" fill="#ffef4a"/><path d="m216.041 228.566h45v15.831h-45z" fill="#ffd321" transform="matrix(.707 -.707 .707 .707 -97.351 237.938)"/><path d="m90 148.91v-70.542l38.183 10.048 7.635-29.012-75.818-19.952v67.038c-4.695-1.665-9.742-2.58-15-2.58-24.813 0-45 20.187-45 45s20.187 45 45 45 45-20.187 45-45z" fill="#ff8659"/><path d="m435 339.364v82.127c-29.215-10.361-60 11.433-60 42.419 0 24.814 20.186 45 45 45 24.813 0 45-20.186 45-45v-85.452l37.119 9.942 7.762-28.979z" fill="#e20059"/></g></svg>